Vaada Raha I Promise 2009 Hindi DVDRip XviD ={DaBaS}=
=====================================================

General
=======
Format : AVI
Format/Info : Audio Video Interleave
File size : 698 MiB
Duration : 1h 45mn
Overall bit rate : 921 Kbps
Imdb Link : http://www.imdb.com/title/tt1512321/


Video
=====
Format : MPEG-4 Visual
Format profile : Streaming Video@L1
Format settings, BVOP : Yes
Format settings, QPel : No
Format settings, GMC : No warppoints
Format settings, Matrix : Default
Muxing mode : Packed bitstream
Codec ID : XVID
Codec ID/Hint : XviD
Duration : 1h 45mn
Bit rate : 464 Kbps
Width : 720 pixels
Height : 320 pixels
Display aspect ratio : 2.25
Frame rate : 23.976 fps
Resolution : 24 bits
Colorimetry : 4:2:0
Scan type : Progressive
Bits/(Pixel*Frame) : 0.084
Stream size : 351 MiB (50%)
Writing library : XviD 50

Audio
=====
Format : AC-3
Format/Info : Audio Coding 3
Codec ID : 2000
Duration : 1h 45mn
Bit rate mode : Constant
Bit rate : 448 Kbps
Channel(s) : 2 channels
Channel positions : L R
Sampling rate : 48.0 KHz
Stream size : 339 MiB (49%)
Alignment : Split accross interleaves
Interleave, duration : 42 ms (1.00 video frame)
Interleave, preload duration : 500 ms
Language : Hindi


English Subtitles included.....

========================================================================

Enjoy.......

={DaBaS}=